# xmcd
#
# Track frame offsets: 
#        150
#        9740
#        21789
#        30121
#        42032
#        47724
#        55166
#        71031
#        83987
#        92607
#        98978
#        107659
#        118281
#
# Disc length: 1770 seconds
#
# Revision: 0
# Processed by: cddbd v1.5.2PL0 Copyright (c) Steve Scherf et al.
# Submitted via: ExactAudioCopy v0.99pb5
#
DISCID=a006e80d
DTITLE=Brother Bill - Wild on the Whiskey
DYEAR=2009
DGENRE=Country
TTITLE0=Drink All Day
TTITLE1=White Collar Wife
TTITLE2=16 Hrs
TTITLE3=West Texas
TTITLE4=Rock 'n' Roll
TTITLE5=Take it Back
TTITLE6=Drink No More
TTITLE7=Party Hardy Swing
TTITLE8=Comin' Home Wasted
TTITLE9=On the Run
TTITLE10=Don't Make Me Quit
TTITLE11=Devil on My Right
TTITLE12=Wild on the Whiskey
EXTD=
EXTT0=
EXTT1=
EXTT2=
EXTT3=
EXTT4=
EXTT5=
EXTT6=
EXTT7=
EXTT8=
EXTT9=
EXTT10=
EXTT11=
EXTT12=
PLAYORDER=
